<?xml version="1.0" encoding="iso-8859-1"?>
<!-- Generator: Adobe Illustrator 19.0.0, SVG Export Plug-In . SVG Version: 6.00 Build 0)  -->
<svg version="1.1" id="Layer_1" xmlns="http://www.w3.org/2000/svg" xmlns:xlink="http://www.w3.org/1999/xlink" x="0px" y="0px"
	 viewBox="0 0 511.997 511.997" style="enable-background:new 0 0 511.997 511.997;" xml:space="preserve">
<path style="fill:#B39A7C;" d="M253.099,59.453c-25.83,23.31-74.747,22.425-74.747,22.425
	c-25.407-0.009-46.202,20.771-46.211,46.177l0,0c-0.009,25.407,20.771,46.202,46.177,46.211l41.684,0.015
	c11.234,0.004,21.563-4.062,29.596-10.79c26.985-18.603,23.868-65.21,19.056-93.887C264.951,48.558,253.099,59.453,253.099,59.453z"
	/>
<path style="fill:#5EAC24;" d="M245.077,226.741c5.836,2.531,12.769,0.336,16.026-5.305L354.11,60.341l72.83-28.189
	c6.536-2.53,9.784-9.88,7.254-16.416c-2.529-6.537-9.88-9.785-16.416-7.254l-77.003,29.805c-2.701,1.045-4.963,2.982-6.41,5.49
	l-95.244,164.969c-3.505,6.07-1.424,13.831,4.645,17.336C244.196,226.328,244.634,226.548,245.077,226.741z"/>
<path style="fill:#4E901E;" d="M302.323,120.807c0.044-5.948-0.231-12.606-1.037-19.736l-62.165,107.674
	c-3.505,6.07-1.424,13.831,4.645,17.336c0.428,0.248,0.867,0.468,1.31,0.66c5.836,2.531,12.768,0.336,16.025-5.305l52.137-90.304
	C309.958,127.335,306.302,123.872,302.323,120.807z"/>
<path style="fill:#A78966;" d="M252.805,161.001h-14.453c-17.485,0-32.686-10.275-39.866-25.085h17.791
	c4.206,0,7.615-3.408,7.615-7.615c0-4.206-3.408-7.615-7.615-7.615h-22.004c-0.117-1.304-0.187-2.62-0.187-3.954
	c0-11.804,9.989-28.735,19.415-38.818c-18.791,4.257-35.147,3.961-35.147,3.961c-25.407-0.009-46.202,20.771-46.211,46.177l0,0
	c-0.009,25.407,20.771,46.202,46.177,46.211l41.684,0.015c11.234,0.004,21.563-4.062,29.596-10.79
	C250.725,162.714,251.78,161.872,252.805,161.001z"/>
<path style="fill:#C0AB91;" d="M257.296,225.127H146.112c-23.914,0-43.481-19.567-43.481-43.481v-2.249
	c0-23.914,19.567-43.481,43.481-43.481h111.184c23.914,0,43.481,19.567,43.481,43.481v2.249
	C300.778,205.56,281.212,225.127,257.296,225.127z"/>
<path style="fill:#B39A7C;" d="M220.566,169.591h-46.635c4.478-19.231,21.801-33.675,42.345-33.675h-70.164
	c-23.915,0-43.481,19.567-43.481,43.481v2.249c0,23.914,19.567,43.481,43.481,43.481h70.164c-22.846,0-41.71-17.861-43.352-40.306
	h47.642c4.206,0,7.615-3.408,7.615-7.615S224.772,169.591,220.566,169.591z"/>
<path style="fill:#D9CCBC;" d="M274.272,273.354H129.191c-24.347,0-44.267-19.92-44.267-44.267l0,0
	c0-24.347,19.92-44.267,44.267-44.267h145.082c24.347,0,44.267,19.92,44.267,44.267l0,0
	C318.54,253.434,298.619,273.354,274.272,273.354z"/>
<path style="fill:#C0AB91;" d="M155.061,229.087L155.061,229.087c0-24.347,19.92-44.267,44.267-44.267h-70.136
	c-24.347,0-44.267,19.92-44.267,44.267l0,0c0,24.347,19.92,44.267,44.267,44.267h70.136
	C174.981,273.354,155.061,253.434,155.061,229.087z"/>
<path style="fill:#C2DFF6;" d="M100.033,289.211l39.487,201.936c1.513,7.692,8.255,13.238,16.095,13.238h93.936
	c7.901,0,14.68-5.633,16.127-13.401l37.752-202.561L100.033,289.211z"/>
<path style="fill:#96C8EF;" d="M100.033,289.211l39.487,201.936c1.513,7.692,8.255,13.238,16.095,13.238h39.258
	c-7.839,0-14.583-5.547-16.095-13.238l-39.487-201.936L100.033,289.211L100.033,289.211z"/>
<polygon style="opacity:0.5;fill:#5AAAE7;enable-background:new    ;" points="100.033,289.211 111.152,346.067 150.409,346.067 
	139.291,289.211 "/>
<path style="fill:#B39A7C;" d="M121.745,280.146l34.563,190.077c0,0,2.306,13.856,15.353,13.856h61.911
	c12.61,0,15.355-13.886,15.355-13.886l35.854-190.047H121.745z"/>
<path style="fill:#A78966;" d="M204.024,470.223l-34.563-190.077h-47.716l34.563,190.077c0,0,2.306,13.856,15.353,13.856h61.911
	c0.004,0,0.007,0,0.011,0h-14.207C206.329,484.079,204.024,470.223,204.024,470.223z"/>
<polygon style="fill:#78B9EB;" points="111.152,346.067 292.686,346.067 303.43,288.423 100.033,289.211 "/>
<path style="fill:#C2DFF6;" d="M323.895,244.242c-2.307-2.915-5.822-4.616-9.54-4.616H89.109c-3.719,0-7.233,1.701-9.54,4.616
	c-2.308,2.915-3.156,6.726-2.302,10.345l8.581,36.376c1.296,5.493,6.198,9.373,11.842,9.373h208.085
	c5.644,0,10.546-3.88,11.842-9.373l8.58-36.376C327.051,250.968,326.203,247.157,323.895,244.242z"/>
<g>
	<path style="fill:#96C8EF;" d="M125.105,290.962l-8.581-36.376c-0.854-3.618-0.006-7.43,2.302-10.345
		c2.308-2.915,5.822-4.616,9.54-4.616H89.109c-3.719,0-7.233,1.701-9.54,4.616c-2.308,2.915-3.156,6.726-2.302,10.345l8.581,36.376
		c1.296,5.493,6.198,9.373,11.842,9.373h39.258C131.303,300.336,126.4,296.456,125.105,290.962z"/>
	<path style="fill:#96C8EF;" d="M284.188,277.596h-69.646c-4.206,0-7.615-3.408-7.615-7.615c0-4.206,3.408-7.615,7.615-7.615h69.646
		c4.206,0,7.615,3.408,7.615,7.615C291.803,274.187,288.394,277.596,284.188,277.596z"/>
</g>
<g>
	<circle style="fill:#FFFFFF;" cx="278.979" cy="204.946" r="7.107"/>
	<circle style="fill:#FFFFFF;" cx="250.165" cy="157.227" r="7.107"/>
	<circle style="fill:#FFFFFF;" cx="202.01" cy="219.16" r="7.107"/>
	<circle style="fill:#FFFFFF;" cx="248.094" cy="100.777" r="7.107"/>
	<circle style="fill:#FFFFFF;" cx="269.75" cy="220.622" r="4.509"/>
	<circle style="fill:#FFFFFF;" cx="223.717" cy="209.454" r="4.509"/>
	<circle style="fill:#FFFFFF;" cx="181.521" cy="220.622" r="4.509"/>
	<circle style="fill:#FFFFFF;" cx="228.184" cy="154.628" r="4.509"/>
	<circle style="fill:#FFFFFF;" cx="240.987" cy="77.125" r="4.509"/>
	<circle style="fill:#FFFFFF;" cx="214.701" cy="107.884" r="4.509"/>
</g>
<circle style="fill:#5EAC24;" cx="202.751" cy="416.126" r="39.258"/>
<path style="fill:#FFFFFF;" d="M202.747,462.993c-25.846,0-46.873-21.027-46.873-46.872c0-25.846,21.027-46.873,46.873-46.873
	s46.873,21.027,46.873,46.873C249.62,441.967,228.593,462.993,202.747,462.993z M202.747,384.478
	c-17.449,0-31.644,14.195-31.644,31.643c0,17.448,14.195,31.642,31.643,31.642s31.643-14.195,31.643-31.643
	C234.391,398.674,220.196,384.478,202.747,384.478z"/>
<path d="M282.469,401.569c-4.13-0.773-8.109,1.957-8.881,6.091l-4.914,26.365c-0.771,4.134,1.956,8.11,6.091,8.881
	c0.471,0.088,7.377,1.15,8.881-6.091l4.914-26.365C289.329,406.315,286.603,402.339,282.469,401.569z"/>
<path d="M441.296,12.989c-1.957-5.059-5.768-9.053-10.73-11.246c-4.96-2.192-10.479-2.32-15.537-0.362l-77.001,29.804
	c-4.306,1.666-7.95,4.785-10.258,8.784l-49.86,86.361c2.59-16.12,2.018-35.554-1.756-58.047
	c-1.794-10.195-5.867-16.435-12.109-18.55c-8.254-2.799-15.32,3.398-16.047,4.065c-23.252,20.985-69.053,20.477-69.509,20.465
	c-0.053-0.002-0.1-0.003-0.158-0.001c-7.714,0-15.177,1.618-22.18,4.81c-3.828,1.744-5.515,6.259-3.771,10.087
	c1.743,3.827,6.257,5.517,10.087,3.771c4.994-2.275,10.316-3.433,15.821-3.439c2.983,0.045,52.707,0.711,79.965-24.434
	c1.974-1.82,2.229,2.043,2.892,5.805c2.749,16.385,4.913,39.018,0.806,57.879h-6.748c-4.206,0-7.615,3.408-7.615,7.615
	c0,4.206,3.408,7.615,7.615,7.615h7.699c17.287,2.744,30.261,17.882,30.261,35.426v1.381c-2.795-1.098-5.715-1.962-8.739-2.568
	c-4.123-0.823-8.137,1.847-8.961,5.971c-0.825,4.124,1.941,7.758,5.971,8.961c33.196,9.909,29.437,37.898,29.359,38.869H92.664
	c-0.078-0.973-0.125-1.949-0.125-2.925c0-17.243,12.268-32.333,29.169-35.879c4.116-0.864,6.752-4.9,5.889-9.016
	c-0.863-4.117-4.898-6.753-9.016-5.889c-2.881,0.604-5.663,1.451-8.336,2.507v-1.413c0-17.544,12.972-32.682,30.262-35.426h5.605
	c4.206,0,7.615-3.408,7.615-7.615c0-4.206-3.408-7.615-7.615-7.615h-6.176c-0.054,0-0.444-8.183,2.39-14.471
	c1.727-3.835-0.434-8.331-4.356-9.848c-3.924-1.517-8.08,0.541-9.848,4.356c-4.873,10.512-3.508,22.589-3.356,24.239
	c-33.498,17.099-29.531,53.961-29.116,56.586c-22.151,17.762-18.191,43.841-17.917,46c-1.537,1.084-2.932,2.394-4.135,3.914
	c-3.775,4.768-5.138,10.898-3.742,16.818l8.58,36.375c1.99,8.437,9.109,14.478,17.616,15.17l36.122,184.735
	c2.21,11.232,12.121,19.384,23.567,19.384h93.936c11.567,0,21.497-8.252,23.613-19.62l5.481-29.405
	c0.771-4.133-1.956-8.11-6.091-8.881c-4.126-0.771-8.109,1.956-8.881,6.091l-5.481,29.407c-0.775,4.161-4.408,7.179-8.641,7.179
	h-93.936c-4.188,0-7.815-2.983-8.622-7.086l-26.593-136.003h163.122l-5.043,27.058c-0.771,4.134,1.956,8.11,6.091,8.881
	c0.472,0.088,7.472,0.877,8.881-6.091l14.104-75.678c8.387-0.797,15.379-6.795,17.347-15.143l8.58-36.375
	c1.397-5.921,0.031-12.051-3.743-16.818c-1.201-1.517-2.593-2.827-4.127-3.91c0.274-2.16,0.416-4.337,0.416-6.52
	c0-15.617-7.057-29.925-18.379-39.547c0.407-2.603,2.539-20.501-2.914-28.669l54.501-94.399l70.326-27.221
	c5.058-1.958,9.051-5.768,11.243-10.729C443.125,23.563,443.254,18.045,441.296,12.989z M286.486,338.452H117.547l-5.965-30.502
	h180.588L286.486,338.452z M314.356,247.241c1.399,0,2.7,0.629,3.57,1.728c0.868,1.097,1.182,2.507,0.861,3.87l-8.58,36.375
	c-0.486,2.064-2.309,3.507-4.43,3.507H97.69c-2.122,0-3.944-1.443-4.431-3.507l-8.58-36.375c-0.321-1.364-0.008-2.774,0.86-3.87
	c0.869-1.099,2.171-1.728,3.571-1.728L314.356,247.241L314.356,247.241z M427.002,22.367c-0.547,1.241-1.546,2.193-2.811,2.683
	L351.362,53.24c-1.62,0.626-2.978,1.79-3.846,3.294l-51.657,89.473c-2.278-2.631-4.827-5.024-7.594-7.151l52.696-91.272
	c0.577-0.999,1.487-1.78,2.564-2.196l77.004-29.805c1.263-0.488,2.643-0.457,3.883,0.091c1.241,0.548,2.192,1.545,2.682,2.811
	C427.582,19.749,427.55,21.128,427.002,22.367z"/>
<g>
</g>
<g>
</g>
<g>
</g>
<g>
</g>
<g>
</g>
<g>
</g>
<g>
</g>
<g>
</g>
<g>
</g>
<g>
</g>
<g>
</g>
<g>
</g>
<g>
</g>
<g>
</g>
<g>
</g>
</svg>
